<svg xmlns="http://www.w3.org/2000/svg" xmlns:xlink="http://www.w3.org/1999/xlink" xmlns:lucid="lucid" width="2000" height="1000"><g transform="translate(500 0)" lucid:page-tab-id="0_0"><path d="M211.67 631a12 12 0 0 1 12-12h436a12 12 0 0 1 12 12v90a12 12 0 0 1-12 12h-436a12 12 0 0 1-12-12z" fill="#fff"/><path d="M211.67 631a12 12 0 0 1 12-12h436a12 12 0 0 1 12 12v28h-460z" fill="#ccc"/><path d="M211.67 659h460v38h-460z" fill="#fff"/><path d="M211.67 696h460v25a12 12 0 0 1-12 12h-436a12 12 0 0 1-12-12z" fill="#e6e6e6"/><path d="M212.67 659h458-458zM211.67 631a12 12 0 0 1 12-12h436a12 12 0 0 1 12 12v90a12 12 0 0 1-12 12h-436a12 12 0 0 1-12-12zM325 660v72zM544.24 660v72z" stroke="#000" stroke-width="2" fill="none"/><use xlink:href="#a" transform="matrix(1,0,0,1,221.66660373035165,619) translate(157.71604938271605 24.444444444444443)"/><use xlink:href="#b" transform="matrix(1,0,0,1,216.66660373035165,661.5) translate(18.111111111111114 20.444444444444443)"/><use xlink:href="#c" transform="matrix(1,0,0,1,216.66660373035165,661.5) translate(57.55555555555556 20.444444444444443)"/><use xlink:href="#d" transform="matrix(1,0,0,1,329.9994531642891,661.5) translate(69.81481481481481 20.444444444444443)"/><use xlink:href="#e" transform="matrix(1,0,0,1,549.2366441254392,661.5) translate(31.870370370370367 20.444444444444443)"/><use xlink:href="#b" transform="matrix(1,0,0,1,216.66660373035165,698.5) translate(18.111111111111114 20.444444444444443)"/><use xlink:href="#c" transform="matrix(1,0,0,1,216.66660373035165,698.5) translate(57.55555555555556 20.444444444444443)"/><use xlink:href="#f" transform="matrix(1,0,0,1,329.9994531642891,698.5) translate(63.7037037037037 20.444444444444443)"/><use xlink:href="#e" transform="matrix(1,0,0,1,549.2366441254392,698.5) translate(31.870370370370367 20.444444444444443)"/><path d="M211.67 771a12 12 0 0 1 12-12h436a12 12 0 0 1 12 12v127a12 12 0 0 1-12 12h-436a12 12 0 0 1-12-12z" fill="#fff"/><path d="M211.67 771a12 12 0 0 1 12-12h436a12 12 0 0 1 12 12v28h-460z" fill="#ccc"/><path d="M211.67 799h460v38h-460z" fill="#fff"/><path d="M211.67 836h460v38h-460z" fill="#e6e6e6"/><path d="M211.67 873h460v25a12 12 0 0 1-12 12h-436a12 12 0 0 1-12-12z" fill="#fff"/><path d="M212.67 799h458-458zM211.67 771a12 12 0 0 1 12-12h436a12 12 0 0 1 12 12v127a12 12 0 0 1-12 12h-436a12 12 0 0 1-12-12zM325 800v109zM544.24 800v109z" stroke="#000" stroke-width="2" fill="none"/><use xlink:href="#g" transform="matrix(1,0,0,1,221.66660373035165,759) translate(188.58024691358025 24.444444444444443)"/><use xlink:href="#h" transform="matrix(1,0,0,1,216.66660373035165,801.5) translate(37.833333333333336 20.444444444444443)"/><use xlink:href="#i" transform="matrix(1,0,0,1,329.9994531642891,801.5) translate(96.35802469135803 20.444444444444443)"/><use xlink:href="#j" transform="matrix(1,0,0,1,549.2366441254392,801.5) translate(20.23456790123457 20.444444444444443)"/><use xlink:href="#k" transform="matrix(1,0,0,1,216.66660373035165,838.5) translate(34.160493827160494 20.444444444444443)"/><use xlink:href="#l" transform="matrix(1,0,0,1,329.9994531642891,838.5) translate(80.98765432098766 20.444444444444443)"/><use xlink:href="#e" transform="matrix(1,0,0,1,549.2366441254392,838.5) translate(31.870370370370367 20.444444444444443)"/><use xlink:href="#k" transform="matrix(1,0,0,1,216.66660373035165,875.5) translate(34.160493827160494 20.444444444444443)"/><use xlink:href="#m" transform="matrix(1,0,0,1,329.9994531642891,875.5) translate(51.45061728395062 20.444444444444443)"/><use xlink:href="#e" transform="matrix(1,0,0,1,549.2366441254392,875.5) translate(31.870370370370367 20.444444444444443)"/><path d="M211.67 232a12 12 0 0 1 12-12h436a12 12 0 0 1 12 12v349a12 12 0 0 1-12 12h-436a12 12 0 0 1-12-12z" fill="#fff"/><path d="M211.67 232a12 12 0 0 1 12-12h436a12 12 0 0 1 12 12v28h-460z" fill="#ccc"/><path d="M211.67 260h460v38h-460z" fill="#fff"/><path d="M211.67 297h460v38h-460z" fill="#e6e6e6"/><path d="M211.67 334h460v38h-460z" fill="#fff"/><path d="M211.67 371h460v38h-460z" fill="#e6e6e6"/><path d="M211.67 408h460v38h-460z" fill="#fff"/><path d="M211.67 445h460v38h-460z" fill="#e6e6e6"/><path d="M211.67 482h460v38h-460z" fill="#fff"/><path d="M211.67 519h460v38h-460z" fill="#e6e6e6"/><path d="M211.67 556h460v25a12 12 0 0 1-12 12h-436a12 12 0 0 1-12-12z" fill="#fff"/><path d="M212.67 260h458-458zM211.67 232a12 12 0 0 1 12-12h436a12 12 0 0 1 12 12v349a12 12 0 0 1-12 12h-436a12 12 0 0 1-12-12zM325 261v331zM544.24 261v331z" stroke="#000" stroke-width="2" fill="none"/><use xlink:href="#n" transform="matrix(1,0,0,1,221.66660373035165,220) translate(194.69135802469137 24.444444444444443)"/><use xlink:href="#h" transform="matrix(1,0,0,1,216.66660373035165,262.5) translate(37.833333333333336 20.444444444444443)"/><use xlink:href="#i" transform="matrix(1,0,0,1,329.9994531642891,262.5) translate(96.35802469135803 20.444444444444443)"/><use xlink:href="#e" transform="matrix(1,0,0,1,549.2366441254392,262.5) translate(31.870370370370367 20.444444444444443)"/><use xlink:href="#k" transform="matrix(1,0,0,1,216.66660373035165,299.5) translate(34.160493827160494 20.444444444444443)"/><use xlink:href="#l" transform="matrix(1,0,0,1,329.9994531642891,299.5) translate(80.98765432098766 20.444444444444443)"/><use xlink:href="#e" transform="matrix(1,0,0,1,549.2366441254392,299.5) translate(31.870370370370367 20.444444444444443)"/><use xlink:href="#k" transform="matrix(1,0,0,1,216.66660373035165,336.5) translate(34.160493827160494 20.444444444444443)"/><use xlink:href="#o" transform="matrix(1,0,0,1,329.9994531642891,336.5) translate(92.68518518518519 20.444444444444443)"/><use xlink:href="#e" transform="matrix(1,0,0,1,549.2366441254392,336.5) translate(31.870370370370367 20.444444444444443)"/><use xlink:href="#k" transform="matrix(1,0,0,1,216.66660373035165,373.5) translate(34.160493827160494 20.444444444444443)"/><use xlink:href="#m" transform="matrix(1,0,0,1,329.9994531642891,373.5) translate(51.45061728395062 20.444444444444443)"/><use xlink:href="#e" transform="matrix(1,0,0,1,549.2366441254392,373.5) translate(31.870370370370367 20.444444444444443)"/><use xlink:href="#k" transform="matrix(1,0,0,1,216.66660373035165,410.5) translate(34.160493827160494 20.444444444444443)"/><use xlink:href="#p" transform="matrix(1,0,0,1,329.9994531642891,410.5) translate(63.05555555555556 20.444444444444443)"/><use xlink:href="#e" transform="matrix(1,0,0,1,549.2366441254392,410.5) translate(31.870370370370367 20.444444444444443)"/><use xlink:href="#k" transform="matrix(1,0,0,1,216.66660373035165,447.5) translate(34.160493827160494 20.444444444444443)"/><use xlink:href="#q" transform="matrix(1,0,0,1,329.9994531642891,447.5) translate(47.68518518518519 20.444444444444443)"/><use xlink:href="#e" transform="matrix(1,0,0,1,549.2366441254392,447.5) translate(31.870370370370367 20.444444444444443)"/><use xlink:href="#k" transform="matrix(1,0,0,1,216.66660373035165,484.5) translate(34.160493827160494 20.444444444444443)"/><use xlink:href="#r" transform="matrix(1,0,0,1,329.9994531642891,484.5) translate(59.382716049382715 20.444444444444443)"/><use xlink:href="#e" transform="matrix(1,0,0,1,549.2366441254392,484.5) translate(31.870370370370367 20.444444444444443)"/><use xlink:href="#k" transform="matrix(1,0,0,1,216.66660373035165,521.5) translate(34.160493827160494 20.444444444444443)"/><use xlink:href="#s" transform="matrix(1,0,0,1,329.9994531642891,521.5) translate(26.728395061728406 20.444444444444443)"/><use xlink:href="#e" transform="matrix(1,0,0,1,549.2366441254392,521.5) translate(31.870370370370367 20.444444444444443)"/><use xlink:href="#t" transform="matrix(1,0,0,1,216.66660373035165,558.5) translate(37.833333333333336 20.444444444444443)"/><use xlink:href="#u" transform="matrix(1,0,0,1,329.9994531642891,558.5) translate(70.49382716049382 20.444444444444443)"/><use xlink:href="#j" transform="matrix(1,0,0,1,549.2366441254392,558.5) translate(20.23456790123457 20.444444444444443)"/><path d="M190.67 677.5h-14a6 6 0 0 1-6-6V283.95a6 6 0 0 1 6-6h14M210.44 677.5h-20m20-10l-20 10m20 10l-20-10m0-10v20M210.67 277.94h-20m10-10v20m-10-20v20M190.67 714.67h-14a6 6 0 0 0-6 6v90.83a6 6 0 0 0 6 6h14M210.44 714.67h-20m20-10l-20 10m20 10l-20-10m0-10v20M210.67 817.5h-20m10-10v20m-10-20v20" stroke="#3a414a" fill="none"/><path d="M-360 372a12 12 0 0 1 12-12H88a12 12 0 0 1 12 12v201a12 12 0 0 1-12 12h-436a12 12 0 0 1-12-12z" fill="#fff"/><path d="M-360 372a12 12 0 0 1 12-12H88a12 12 0 0 1 12 12v28h-460z" fill="#ccc"/><path d="M-360 400h460v38h-460z" fill="#fff"/><path d="M-360 437h460v38h-460z" fill="#e6e6e6"/><path d="M-360 474h460v38h-460z" fill="#fff"/><path d="M-360 511h460v38h-460z" fill="#e6e6e6"/><path d="M-360 548h460v25a12 12 0 0 1-12 12h-436a12 12 0 0 1-12-12z" fill="#fff"/><path d="M-359 400H99h-458zM-360 372a12 12 0 0 1 12-12H88a12 12 0 0 1 12 12v201a12 12 0 0 1-12 12h-436a12 12 0 0 1-12-12zM-246.67 401v183zM-27.43 401v183z" stroke="#000" stroke-width="2" fill="none"/><use xlink:href="#v" transform="matrix(1,0,0,1,-350,360) translate(163.9814814814815 24.444444444444443)"/><use xlink:href="#h" transform="matrix(1,0,0,1,-355,402.5) translate(37.833333333333336 20.444444444444443)"/><use xlink:href="#i" transform="matrix(1,0,0,1,-241.66715056606256,402.5) translate(96.35802469135803 20.444444444444443)"/><use xlink:href="#e" transform="matrix(1,0,0,1,-22.429959604912483,402.5) translate(31.870370370370367 20.444444444444443)"/><use xlink:href="#k" transform="matrix(1,0,0,1,-355,439.5) translate(34.160493827160494 20.444444444444443)"/><use xlink:href="#l" transform="matrix(1,0,0,1,-241.66715056606256,439.5) translate(80.98765432098766 20.444444444444443)"/><use xlink:href="#e" transform="matrix(1,0,0,1,-22.429959604912483,439.5) translate(31.870370370370367 20.444444444444443)"/><use xlink:href="#k" transform="matrix(1,0,0,1,-355,476.5) translate(34.160493827160494 20.444444444444443)"/><use xlink:href="#w" transform="matrix(1,0,0,1,-241.66715056606256,476.5) translate(42.16049382716048 20.444444444444443)"/><use xlink:href="#e" transform="matrix(1,0,0,1,-22.429959604912483,476.5) translate(31.870370370370367 20.444444444444443)"/><use xlink:href="#k" transform="matrix(1,0,0,1,-355,513.5) translate(34.160493827160494 20.444444444444443)"/><use xlink:href="#x" transform="matrix(1,0,0,1,-241.66715056606256,513.5) translate(83.45679012345678 20.444444444444443)"/><use xlink:href="#e" transform="matrix(1,0,0,1,-22.429959604912483,513.5) translate(31.870370370370367 20.444444444444443)"/><use xlink:href="#k" transform="matrix(1,0,0,1,-355,550.5) translate(34.160493827160494 20.444444444444443)"/><use xlink:href="#y" transform="matrix(1,0,0,1,-241.66715056606256,550.5) translate(68.7037037037037 20.444444444444443)"/><use xlink:href="#e" transform="matrix(1,0,0,1,-22.429959604912483,550.5) translate(31.870370370370367 20.444444444444443)"/><path d="M740 232a12 12 0 0 1 12-12h436a12 12 0 0 1 12 12v90a12 12 0 0 1-12 12H752a12 12 0 0 1-12-12z" fill="#fff"/><path d="M740 232a12 12 0 0 1 12-12h436a12 12 0 0 1 12 12v28H740z" fill="#ccc"/><path d="M740 260h460v38H740z" fill="#fff"/><path d="M740 297h460v25a12 12 0 0 1-12 12H752a12 12 0 0 1-12-12z" fill="#e6e6e6"/><path d="M741 260h458-458zM740 232a12 12 0 0 1 12-12h436a12 12 0 0 1 12 12v90a12 12 0 0 1-12 12H752a12 12 0 0 1-12-12zM853.33 261v72zM1072.57 261v72z" stroke="#000" stroke-width="2" fill="none"/><use xlink:href="#z" transform="matrix(1,0,0,1,750,220) translate(195.37037037037038 24.444444444444443)"/><use xlink:href="#b" transform="matrix(1,0,0,1,745,262.5) translate(18.111111111111114 20.444444444444443)"/><use xlink:href="#c" transform="matrix(1,0,0,1,745,262.5) translate(57.55555555555556 20.444444444444443)"/><use xlink:href="#i" transform="matrix(1,0,0,1,858.3328494339374,262.5) translate(96.35802469135803 20.444444444444443)"/><use xlink:href="#e" transform="matrix(1,0,0,1,1077.5700403950875,262.5) translate(31.870370370370367 20.444444444444443)"/><use xlink:href="#k" transform="matrix(1,0,0,1,745,299.5) translate(34.160493827160494 20.444444444444443)"/><use xlink:href="#A" transform="matrix(1,0,0,1,858.3328494339374,299.5) translate(88.3641975308642 20.444444444444443)"/><use xlink:href="#e" transform="matrix(1,0,0,1,1077.5700403950875,299.5) translate(31.870370370370367 20.444444444444443)"/><path d="M692.67 575.23h7.16a6 6 0 0 0 6-6V284.5a6 6 0 0 1 6-6H719M672.9 575.23h20m-20 10l20-10m-20-10l20 10m0 10v-20M739 278.5h-20m10-10v20m-10-20v20" stroke="#3a414a" fill="none"/><path d="M-360 232a12 12 0 0 1 12-12H88a12 12 0 0 1 12 12v90a12 12 0 0 1-12 12h-436a12 12 0 0 1-12-12z" fill="#fff"/><path d="M-360 232a12 12 0 0 1 12-12H88a12 12 0 0 1 12 12v28h-460z" fill="#ccc"/><path d="M-360 260h460v38h-460z" fill="#fff"/><path d="M-360 297h460v25a12 12 0 0 1-12 12h-436a12 12 0 0 1-12-12z" fill="#e6e6e6"/><path d="M-359 260H99h-458zM-360 232a12 12 0 0 1 12-12H88a12 12 0 0 1 12 12v90a12 12 0 0 1-12 12h-436a12 12 0 0 1-12-12zM-246.67 261v72zM-27.43 261v72z" stroke="#000" stroke-width="2" fill="none"/><use xlink:href="#B" transform="matrix(1,0,0,1,-350,220) translate(133.1172839506173 24.444444444444443)"/><use xlink:href="#b" transform="matrix(1,0,0,1,-355,262.5) translate(18.111111111111114 20.444444444444443)"/><use xlink:href="#c" transform="matrix(1,0,0,1,-355,262.5) translate(57.55555555555556 20.444444444444443)"/><use xlink:href="#d" transform="matrix(1,0,0,1,-241.66715056606256,262.5) translate(69.81481481481481 20.444444444444443)"/><use xlink:href="#e" transform="matrix(1,0,0,1,-22.429959604912483,262.5) translate(31.870370370370367 20.444444444444443)"/><use xlink:href="#b" transform="matrix(1,0,0,1,-355,299.5) translate(18.111111111111114 20.444444444444443)"/><use xlink:href="#c" transform="matrix(1,0,0,1,-355,299.5) translate(57.55555555555556 20.444444444444443)"/><use xlink:href="#C" transform="matrix(1,0,0,1,-241.66715056606256,299.5) translate(41.54320987654321 20.444444444444443)"/><use xlink:href="#e" transform="matrix(1,0,0,1,-22.429959604912483,299.5) translate(31.870370370370367 20.444444444444443)"/><path d="M-381 418.26h-14a6 6 0 0 1-6-6V321.5a6 6 0 0 1 6-6h14M-361 418.26h-20m10-10v20m-10-20v20M-361.22 315.5h-20m20-10l-20 10m20 10l-20-10m0-10v20M121 277.94h69.67M101.22 277.94h20m-20 10l20-10m-20-10l20 10m0 10v-20M210.67 277.94h-20m10-10v20m-10-20v20" stroke="#3a414a" fill="none"/><defs><path d="M41-130c7 48 86 23 86 84 0 56-69 57-112 41v-40c20 0 9 29 31 31 35 19 77-26 41-50-27-18-72-13-72-59 0-50 58-52 100-41v36c-19 1-8-25-28-25-21-7-50-1-46 23" id="D"/><path d="M90-170c52 0 76 32 76 87 0 54-24 87-77 87-51 0-75-34-75-87 0-54 24-87 76-87zM89-10c39 0 46-35 46-73 0-39-7-73-46-73-39 1-44 34-44 73s6 72 44 73" id="E"/><path d="M125-118c4-37-41-34-68-26v132l23 4v8H8C5-13 21-9 28-12v-141c-7-3-23 1-20-12h47l2 13c31-23 98-29 98 31v109c7 3 23-1 20 12h-72v-8l22-4v-106" id="F"/><path d="M141-152c28 39 5 97-54 97-9 0-20-2-27-3L49-35c29 22 130-14 124 52-4 45-38 57-88 61C21 83-8 26 45-2 33-6 22-15 21-31l28-31c-19-9-28-26-28-51-2-51 53-65 100-52l38-20 7 8zM85 64c35 0 61-11 61-42 0-35-57-17-89-21-9 8-16 19-17 34 0 25 19 29 45 29zM52-113c1 26 7 46 35 44 28-1 34-16 35-44 0-26-6-43-34-43s-36 17-36 43" id="G"/><path d="M-3 46V28h186v18H-3" id="H"/><path d="M47-200c-23 0-25-39 0-38 13 0 18 7 20 19-1 11-8 19-20 19zM65-12l28 4v8H8v-8l28-4v-141l-24-4v-8h53v153" id="I"/><path d="M84-170c49 0 66 33 63 87H46c-8 60 38 80 95 63v10C128-2 108 4 88 4 34 4 14-29 14-84c-1-54 22-86 70-86zm33 73c12-57-57-82-69-24-1 7-2 15-2 24h71" id="J"/><path d="M57-145c16-10 35-24 60-25v45c-19 1-8-30-40-17l-20 6v124l29 4v8H7v-8l21-4v-141c-8-3-24 2-21-12h48" id="K"/><g id="a"><use transform="matrix(0.06172839506172839,0,0,0.06172839506172839,0,0)" xlink:href="#D"/><use transform="matrix(0.06172839506172839,0,0,0.06172839506172839,8.641975308641975,0)" xlink:href="#E"/><use transform="matrix(0.06172839506172839,0,0,0.06172839506172839,19.753086419753085,0)" xlink:href="#F"/><use transform="matrix(0.06172839506172839,0,0,0.06172839506172839,30.864197530864196,0)" xlink:href="#G"/><use transform="matrix(0.06172839506172839,0,0,0.06172839506172839,41.9753086419753,0)" xlink:href="#D"/><use transform="matrix(0.06172839506172839,0,0,0.06172839506172839,50.61728395061728,0)" xlink:href="#H"/><use transform="matrix(0.06172839506172839,0,0,0.06172839506172839,61.72839506172839,0)" xlink:href="#D"/><use transform="matrix(0.06172839506172839,0,0,0.06172839506172839,70.37037037037037,0)" xlink:href="#I"/><use transform="matrix(0.06172839506172839,0,0,0.06172839506172839,76.5432098765432,0)" xlink:href="#F"/><use transform="matrix(0.06172839506172839,0,0,0.06172839506172839,87.65432098765432,0)" xlink:href="#G"/><use transform="matrix(0.06172839506172839,0,0,0.06172839506172839,98.76543209876543,0)" xlink:href="#J"/><use transform="matrix(0.06172839506172839,0,0,0.06172839506172839,108.58024691358024,0)" xlink:href="#K"/><use transform="matrix(0.06172839506172839,0,0,0.06172839506172839,115.92592592592592,0)" xlink:href="#D"/></g><path d="M75-108c48 3 76-12 76-58s-28-57-76-54v112zm111-58c-1 60-46 78-111 74v78l37 5v9H13v-9l28-5v-208l-31-4v-10c81 1 178-14 176 70" id="L"/><path d="M238-236v10l-27 4-81 79L231-14l25 5v9h-57l-93-119-31 25v80l33 5v9H10v-9l31-5v-208l-31-4v-10h95v10l-30 4v111l112-111-23-4v-10h74" id="M"/><path d="M42-37c43 0 23 74-4 81-7 4-14 8-24 11V42c17-5 29-14 31-30C42-2 20 1 21-18c0-12 9-19 21-19" id="N"/><g id="b"><use transform="matrix(0.06172839506172839,0,0,0.06172839506172839,0,0)" xlink:href="#L"/><use transform="matrix(0.06172839506172839,0,0,0.06172839506172839,12.345679012345679,0)" xlink:href="#M"/><use transform="matrix(0.06172839506172839,0,0,0.06172839506172839,28.333333333333332,0)" xlink:href="#N"/></g><path d="M75-106v92l39 5v9H13v-9l28-5v-208l-31-4v-10h177v57h-11l-6-38c-28-4-63-3-95-3v98h69l5-28h11v73h-11l-5-29H75" id="O"/><g id="c"><use transform="matrix(0.06172839506172839,0,0,0.06172839506172839,0,0)" xlink:href="#O"/><use transform="matrix(0.06172839506172839,0,0,0.06172839506172839,12.345679012345679,0)" xlink:href="#M"/></g><path d="M13-81c0-71 46-101 114-85l-1-72-28-4v-8h57v238c8 3 24-2 21 12h-47l-2-12C80 23 13-1 13-81zm77-74c-37 1-44 33-45 74 0 38 9 66 45 66 14 0 27-3 36-7v-130c-10-1-24-3-36-3" id="P"/><g id="d"><use transform="matrix(0.06172839506172839,0,0,0.06172839506172839,0,0)" xlink:href="#D"/><use transform="matrix(0.06172839506172839,0,0,0.06172839506172839,8.641975308641975,0)" xlink:href="#E"/><use transform="matrix(0.06172839506172839,0,0,0.06172839506172839,19.753086419753085,0)" xlink:href="#F"/><use transform="matrix(0.06172839506172839,0,0,0.06172839506172839,30.864197530864196,0)" xlink:href="#G"/><use transform="matrix(0.06172839506172839,0,0,0.06172839506172839,41.9753086419753,0)" xlink:href="#H"/><use transform="matrix(0.06172839506172839,0,0,0.06172839506172839,53.08641975308642,0)" xlink:href="#I"/><use transform="matrix(0.06172839506172839,0,0,0.06172839506172839,59.25925925925926,0)" xlink:href="#P"/></g><path d="M178-68c0 79-95 82-154 59v-54h12c1 35 22 52 60 52 50 0 69-58 33-82-39-24-105-21-105-85 0-67 86-66 142-53v49h-12l-6-29c-31-27-121-7-89 42 28 43 119 24 119 101" id="Q"/><path d="M54-38c-1 25 24 26 44 20v12C71 10 25 9 25-35v-115H4c-2-14 14-10 21-15l18-38h11v38h38v15H54v112" id="R"/><g id="e"><use transform="matrix(0.06172839506172839,0,0,0.06172839506172839,0,0)" xlink:href="#Q"/><use transform="matrix(0.06172839506172839,0,0,0.06172839506172839,12.345679012345679,0)" xlink:href="#R"/><use transform="matrix(0.06172839506172839,0,0,0.06172839506172839,18.51851851851852,0)" xlink:href="#K"/><use transform="matrix(0.06172839506172839,0,0,0.06172839506172839,25.864197530864196,0)" xlink:href="#I"/><use transform="matrix(0.06172839506172839,0,0,0.06172839506172839,32.03703703703704,0)" xlink:href="#F"/><use transform="matrix(0.06172839506172839,0,0,0.06172839506172839,43.14814814814815,0)" xlink:href="#G"/></g><g id="f"><use transform="matrix(0.06172839506172839,0,0,0.06172839506172839,0,0)" xlink:href="#D"/><use transform="matrix(0.06172839506172839,0,0,0.06172839506172839,8.641975308641975,0)" xlink:href="#I"/><use transform="matrix(0.06172839506172839,0,0,0.06172839506172839,14.814814814814813,0)" xlink:href="#F"/><use transform="matrix(0.06172839506172839,0,0,0.06172839506172839,25.925925925925924,0)" xlink:href="#G"/><use transform="matrix(0.06172839506172839,0,0,0.06172839506172839,37.03703703703704,0)" xlink:href="#J"/><use transform="matrix(0.06172839506172839,0,0,0.06172839506172839,46.851851851851855,0)" xlink:href="#K"/><use transform="matrix(0.06172839506172839,0,0,0.06172839506172839,54.19753086419753,0)" xlink:href="#H"/><use transform="matrix(0.06172839506172839,0,0,0.06172839506172839,65.30864197530865,0)" xlink:href="#I"/><use transform="matrix(0.06172839506172839,0,0,0.06172839506172839,71.48148148148148,0)" xlink:href="#P"/></g><g id="g"><use transform="matrix(0.06172839506172839,0,0,0.06172839506172839,0,0)" xlink:href="#D"/><use transform="matrix(0.06172839506172839,0,0,0.06172839506172839,8.641975308641975,0)" xlink:href="#I"/><use transform="matrix(0.06172839506172839,0,0,0.06172839506172839,14.814814814814813,0)" xlink:href="#F"/><use transform="matrix(0.06172839506172839,0,0,0.06172839506172839,25.925925925925924,0)" xlink:href="#G"/><use transform="matrix(0.06172839506172839,0,0,0.06172839506172839,37.03703703703704,0)" xlink:href="#J"/><use transform="matrix(0.06172839506172839,0,0,0.06172839506172839,46.851851851851855,0)" xlink:href="#K"/><use transform="matrix(0.06172839506172839,0,0,0.06172839506172839,54.19753086419753,0)" xlink:href="#D"/></g><g id="h"><use transform="matrix(0.06172839506172839,0,0,0.06172839506172839,0,0)" xlink:href="#L"/><use transform="matrix(0.06172839506172839,0,0,0.06172839506172839,12.345679012345679,0)" xlink:href="#M"/></g><g id="i"><use transform="matrix(0.06172839506172839,0,0,0.06172839506172839,0,0)" xlink:href="#I"/><use transform="matrix(0.06172839506172839,0,0,0.06172839506172839,6.172839506172839,0)" xlink:href="#P"/></g><path d="M203-222l-32-4v-10h81v10l-31 4V0h-17L59-212v198l32 5v9H10v-9l31-5v-208l-31-4v-10h72L203-61v-161" id="S"/><path d="M124-13C89 8 26 15 26-45v-108c-8-3-24 2-21-12h50v118c-3 37 42 32 69 25v-131l-25-4v-8h54v153c8 3 24-2 21 12h-48" id="T"/><path d="M126-118c4-37-42-32-68-25v131l24 4v8H8C5-13 21-9 28-12v-141c-7-3-23 1-20-12h48l1 13c22-15 77-30 92 2 32-22 104-36 104 29v109c8 3 24-2 21 12h-75v-8l25-4v-106c3-39-45-31-72-24 7 37 1 88 3 130l25 4v8h-78v-8l24-4v-106" id="U"/><path d="M45-84c0 64 52 80 104 63 1 25-30 25-55 25-56 0-80-32-80-88 0-76 62-98 131-80v46h-10c-5-15-4-31-23-35-47-10-67 21-67 69" id="V"/><g id="j"><use transform="matrix(0.06172839506172839,0,0,0.06172839506172839,0,0)" xlink:href="#S"/><use transform="matrix(0.06172839506172839,0,0,0.06172839506172839,15.987654320987653,0)" xlink:href="#T"/><use transform="matrix(0.06172839506172839,0,0,0.06172839506172839,27.098765432098766,0)" xlink:href="#U"/><use transform="matrix(0.06172839506172839,0,0,0.06172839506172839,44.382716049382715,0)" xlink:href="#J"/><use transform="matrix(0.06172839506172839,0,0,0.06172839506172839,54.19753086419753,0)" xlink:href="#K"/><use transform="matrix(0.06172839506172839,0,0,0.06172839506172839,61.54320987654321,0)" xlink:href="#I"/><use transform="matrix(0.06172839506172839,0,0,0.06172839506172839,67.71604938271605,0)" xlink:href="#V"/></g><path d="M81-9v9H4v-9l26-5 81-224h33l83 224 30 5v9h-99v-9l31-5-23-68H73L49-14zm38-203L78-98h82" id="W"/><g id="k"><use transform="matrix(0.06172839506172839,0,0,0.06172839506172839,0,0)" xlink:href="#W"/><use transform="matrix(0.06172839506172839,0,0,0.06172839506172839,15.987654320987653,0)" xlink:href="#R"/><use transform="matrix(0.06172839506172839,0,0,0.06172839506172839,22.160493827160494,0)" xlink:href="#R"/><use transform="matrix(0.06172839506172839,0,0,0.06172839506172839,28.333333333333332,0)" xlink:href="#K"/></g><path d="M32-163c41-10 102-14 102 39v112c8 3 24-2 21 12h-45l-4-17C83 13 3 13 13-46c-2-50 45-50 92-51 4-36-5-70-42-56-6 2-12 4-16 6-4 7 0 23-15 20v-36zM42-47c0 41 41 33 63 22v-59c-34 1-63-1-63 37" id="X"/><g id="l"><use transform="matrix(0.06172839506172839,0,0,0.06172839506172839,0,0)" xlink:href="#F"/><use transform="matrix(0.06172839506172839,0,0,0.06172839506172839,11.11111111111111,0)" xlink:href="#X"/><use transform="matrix(0.06172839506172839,0,0,0.06172839506172839,20.925925925925924,0)" xlink:href="#U"/><use transform="matrix(0.06172839506172839,0,0,0.06172839506172839,38.20987654320987,0)" xlink:href="#J"/></g><path d="M156-12c7 3 23-1 20 12h-75v-8l22-4-38-58-45 58 23 4v8H3v-8l19-3 55-71-48-71c-7-3-23 1-20-12h75v8l-22 4 32 48 37-48-23-4v-8h59v8l-19 3-46 60" id="Y"/><path d="M65-12l28 4v8H7v-8l28-4v-226l-28-4v-8h58v238" id="Z"/><g id="m"><use transform="matrix(0.06172839506172839,0,0,0.06172839506172839,0,0)" xlink:href="#J"/><use transform="matrix(0.06172839506172839,0,0,0.06172839506172839,9.814814814814815,0)" xlink:href="#Y"/><use transform="matrix(0.06172839506172839,0,0,0.06172839506172839,20.925925925925924,0)" xlink:href="#R"/><use transform="matrix(0.06172839506172839,0,0,0.06172839506172839,27.098765432098762,0)" xlink:href="#J"/><use transform="matrix(0.06172839506172839,0,0,0.06172839506172839,36.913580246913575,0)" xlink:href="#K"/><use transform="matrix(0.06172839506172839,0,0,0.06172839506172839,44.25925925925925,0)" xlink:href="#F"/><use transform="matrix(0.06172839506172839,0,0,0.06172839506172839,55.37037037037037,0)" xlink:href="#X"/><use transform="matrix(0.06172839506172839,0,0,0.06172839506172839,65.18518518518518,0)" xlink:href="#Z"/><use transform="matrix(0.06172839506172839,0,0,0.06172839506172839,71.35802469135801,0)" xlink:href="#H"/><use transform="matrix(0.06172839506172839,0,0,0.06172839506172839,82.46913580246913,0)" xlink:href="#T"/><use transform="matrix(0.06172839506172839,0,0,0.06172839506172839,93.58024691358024,0)" xlink:href="#K"/><use transform="matrix(0.06172839506172839,0,0,0.06172839506172839,100.92592592592592,0)" xlink:href="#Z"/></g><g id="n"><use transform="matrix(0.06172839506172839,0,0,0.06172839506172839,0,0)" xlink:href="#D"/><use transform="matrix(0.06172839506172839,0,0,0.06172839506172839,8.641975308641975,0)" xlink:href="#E"/><use transform="matrix(0.06172839506172839,0,0,0.06172839506172839,19.753086419753085,0)" xlink:href="#F"/><use transform="matrix(0.06172839506172839,0,0,0.06172839506172839,30.864197530864196,0)" xlink:href="#G"/><use transform="matrix(0.06172839506172839,0,0,0.06172839506172839,41.9753086419753,0)" xlink:href="#D"/></g><g id="o"><use transform="matrix(0.06172839506172839,0,0,0.06172839506172839,0,0)" xlink:href="#T"/><use transform="matrix(0.06172839506172839,0,0,0.06172839506172839,11.11111111111111,0)" xlink:href="#K"/><use transform="matrix(0.06172839506172839,0,0,0.06172839506172839,18.45679012345679,0)" xlink:href="#I"/></g><path d="M53-14c58 12 82-15 82-73 0-52-35-77-82-58v131zM89 4C64 4 42-2 24-9v-229l-24-4v-8h53l-1 94c48-33 114-4 114 69 0 57-23 91-77 91" id="aa"/><g id="p"><use transform="matrix(0.06172839506172839,0,0,0.06172839506172839,0,0)" xlink:href="#X"/><use transform="matrix(0.06172839506172839,0,0,0.06172839506172839,9.814814814814815,0)" xlink:href="#Z"/><use transform="matrix(0.06172839506172839,0,0,0.06172839506172839,15.987654320987653,0)" xlink:href="#aa"/><use transform="matrix(0.06172839506172839,0,0,0.06172839506172839,27.098765432098766,0)" xlink:href="#T"/><use transform="matrix(0.06172839506172839,0,0,0.06172839506172839,38.20987654320987,0)" xlink:href="#U"/><use transform="matrix(0.06172839506172839,0,0,0.06172839506172839,55.49382716049382,0)" xlink:href="#H"/><use transform="matrix(0.06172839506172839,0,0,0.06172839506172839,66.60493827160494,0)" xlink:href="#I"/><use transform="matrix(0.06172839506172839,0,0,0.06172839506172839,72.77777777777777,0)" xlink:href="#P"/></g><g id="q"><use transform="matrix(0.06172839506172839,0,0,0.06172839506172839,0,0)" xlink:href="#X"/><use transform="matrix(0.06172839506172839,0,0,0.06172839506172839,9.814814814814815,0)" xlink:href="#Z"/><use transform="matrix(0.06172839506172839,0,0,0.06172839506172839,15.987654320987653,0)" xlink:href="#aa"/><use transform="matrix(0.06172839506172839,0,0,0.06172839506172839,27.098765432098766,0)" xlink:href="#T"/><use transform="matrix(0.06172839506172839,0,0,0.06172839506172839,38.20987654320987,0)" xlink:href="#U"/><use transform="matrix(0.06172839506172839,0,0,0.06172839506172839,55.49382716049382,0)" xlink:href="#H"/><use transform="matrix(0.06172839506172839,0,0,0.06172839506172839,66.60493827160494,0)" xlink:href="#F"/><use transform="matrix(0.06172839506172839,0,0,0.06172839506172839,77.71604938271605,0)" xlink:href="#X"/><use transform="matrix(0.06172839506172839,0,0,0.06172839506172839,87.53086419753086,0)" xlink:href="#U"/><use transform="matrix(0.06172839506172839,0,0,0.06172839506172839,104.81481481481481,0)" xlink:href="#J"/></g><g id="r"><use transform="matrix(0.06172839506172839,0,0,0.06172839506172839,0,0)" xlink:href="#X"/><use transform="matrix(0.06172839506172839,0,0,0.06172839506172839,9.814814814814815,0)" xlink:href="#Z"/><use transform="matrix(0.06172839506172839,0,0,0.06172839506172839,15.987654320987653,0)" xlink:href="#aa"/><use transform="matrix(0.06172839506172839,0,0,0.06172839506172839,27.098765432098766,0)" xlink:href="#T"/><use transform="matrix(0.06172839506172839,0,0,0.06172839506172839,38.20987654320987,0)" xlink:href="#U"/><use transform="matrix(0.06172839506172839,0,0,0.06172839506172839,55.49382716049382,0)" xlink:href="#H"/><use transform="matrix(0.06172839506172839,0,0,0.06172839506172839,66.60493827160494,0)" xlink:href="#T"/><use transform="matrix(0.06172839506172839,0,0,0.06172839506172839,77.71604938271605,0)" xlink:href="#K"/><use transform="matrix(0.06172839506172839,0,0,0.06172839506172839,85.06172839506173,0)" xlink:href="#Z"/></g><g id="s"><use transform="matrix(0.06172839506172839,0,0,0.06172839506172839,0,0)" xlink:href="#X"/><use transform="matrix(0.06172839506172839,0,0,0.06172839506172839,9.814814814814815,0)" xlink:href="#Z"/><use transform="matrix(0.06172839506172839,0,0,0.06172839506172839,15.987654320987653,0)" xlink:href="#aa"/><use transform="matrix(0.06172839506172839,0,0,0.06172839506172839,27.098765432098766,0)" xlink:href="#T"/><use transform="matrix(0.06172839506172839,0,0,0.06172839506172839,38.20987654320987,0)" xlink:href="#U"/><use transform="matrix(0.06172839506172839,0,0,0.06172839506172839,55.49382716049382,0)" xlink:href="#H"/><use transform="matrix(0.06172839506172839,0,0,0.06172839506172839,66.60493827160494,0)" xlink:href="#I"/><use transform="matrix(0.06172839506172839,0,0,0.06172839506172839,72.77777777777777,0)" xlink:href="#U"/><use transform="matrix(0.06172839506172839,0,0,0.06172839506172839,90.06172839506172,0)" xlink:href="#X"/><use transform="matrix(0.06172839506172839,0,0,0.06172839506172839,99.87654320987653,0)" xlink:href="#G"/><use transform="matrix(0.06172839506172839,0,0,0.06172839506172839,110.98765432098764,0)" xlink:href="#J"/><use transform="matrix(0.06172839506172839,0,0,0.06172839506172839,120.80246913580245,0)" xlink:href="#H"/><use transform="matrix(0.06172839506172839,0,0,0.06172839506172839,131.91358024691357,0)" xlink:href="#T"/><use transform="matrix(0.06172839506172839,0,0,0.06172839506172839,143.02469135802468,0)" xlink:href="#K"/><use transform="matrix(0.06172839506172839,0,0,0.06172839506172839,150.37037037037035,0)" xlink:href="#Z"/></g><g id="t"><use transform="matrix(0.06172839506172839,0,0,0.06172839506172839,0,0)" xlink:href="#O"/><use transform="matrix(0.06172839506172839,0,0,0.06172839506172839,12.345679012345679,0)" xlink:href="#M"/></g><path d="M161-154L85 37C75 66 49 86 8 75V39c18-2 6 24 29 21 30-4 38-32 47-58L21-153c-7-3-20 0-17-12h77v8l-26 4 45 116 43-116-26-4v-8h62v8" id="ab"/><g id="u"><use transform="matrix(0.06172839506172839,0,0,0.06172839506172839,0,0)" xlink:href="#Z"/><use transform="matrix(0.06172839506172839,0,0,0.06172839506172839,6.172839506172839,0)" xlink:href="#ab"/><use transform="matrix(0.06172839506172839,0,0,0.06172839506172839,17.28395061728395,0)" xlink:href="#K"/><use transform="matrix(0.06172839506172839,0,0,0.06172839506172839,24.629629629629626,0)" xlink:href="#I"/><use transform="matrix(0.06172839506172839,0,0,0.06172839506172839,30.802469135802465,0)" xlink:href="#V"/><use transform="matrix(0.06172839506172839,0,0,0.06172839506172839,40.61728395061728,0)" xlink:href="#H"/><use transform="matrix(0.06172839506172839,0,0,0.06172839506172839,51.72839506172839,0)" xlink:href="#I"/><use transform="matrix(0.06172839506172839,0,0,0.06172839506172839,57.901234567901234,0)" xlink:href="#P"/></g><path d="M164-154L98 4H85L17-153c-7-3-20 0-17-12h77v8l-26 4L99-38l46-115-26-4v-8h61v8" id="ac"/><g id="v"><use transform="matrix(0.06172839506172839,0,0,0.06172839506172839,0,0)" xlink:href="#ac"/><use transform="matrix(0.06172839506172839,0,0,0.06172839506172839,11.11111111111111,0)" xlink:href="#E"/><use transform="matrix(0.06172839506172839,0,0,0.06172839506172839,22.22222222222222,0)" xlink:href="#V"/><use transform="matrix(0.06172839506172839,0,0,0.06172839506172839,32.03703703703704,0)" xlink:href="#X"/><use transform="matrix(0.06172839506172839,0,0,0.06172839506172839,41.851851851851855,0)" xlink:href="#aa"/><use transform="matrix(0.06172839506172839,0,0,0.06172839506172839,52.96296296296296,0)" xlink:href="#T"/><use transform="matrix(0.06172839506172839,0,0,0.06172839506172839,64.07407407407408,0)" xlink:href="#Z"/><use transform="matrix(0.06172839506172839,0,0,0.06172839506172839,70.24691358024691,0)" xlink:href="#X"/><use transform="matrix(0.06172839506172839,0,0,0.06172839506172839,80.06172839506172,0)" xlink:href="#K"/><use transform="matrix(0.06172839506172839,0,0,0.06172839506172839,87.4074074074074,0)" xlink:href="#I"/><use transform="matrix(0.06172839506172839,0,0,0.06172839506172839,93.58024691358024,0)" xlink:href="#J"/><use transform="matrix(0.06172839506172839,0,0,0.06172839506172839,103.39506172839505,0)" xlink:href="#D"/></g><path d="M240-154L185 4h-14l-41-109L90 4H77L20-153c-7-3-23 1-20-12h79v8l-27 4L91-41l40-108h14l40 109 38-113-28-4v-8h63v8" id="ad"/><g id="w"><use transform="matrix(0.06172839506172839,0,0,0.06172839506172839,0,0)" xlink:href="#E"/><use transform="matrix(0.06172839506172839,0,0,0.06172839506172839,11.11111111111111,0)" xlink:href="#K"/><use transform="matrix(0.06172839506172839,0,0,0.06172839506172839,18.45679012345679,0)" xlink:href="#I"/><use transform="matrix(0.06172839506172839,0,0,0.06172839506172839,24.62962962962963,0)" xlink:href="#G"/><use transform="matrix(0.06172839506172839,0,0,0.06172839506172839,35.74074074074074,0)" xlink:href="#I"/><use transform="matrix(0.06172839506172839,0,0,0.06172839506172839,41.91358024691358,0)" xlink:href="#F"/><use transform="matrix(0.06172839506172839,0,0,0.06172839506172839,53.0246913580247,0)" xlink:href="#X"/><use transform="matrix(0.06172839506172839,0,0,0.06172839506172839,62.83950617283951,0)" xlink:href="#Z"/><use transform="matrix(0.06172839506172839,0,0,0.06172839506172839,69.01234567901236,0)" xlink:href="#H"/><use transform="matrix(0.06172839506172839,0,0,0.06172839506172839,80.12345679012347,0)" xlink:href="#ad"/><use transform="matrix(0.06172839506172839,0,0,0.06172839506172839,96.11111111111113,0)" xlink:href="#E"/><use transform="matrix(0.06172839506172839,0,0,0.06172839506172839,107.22222222222224,0)" xlink:href="#K"/><use transform="matrix(0.06172839506172839,0,0,0.06172839506172839,114.56790123456793,0)" xlink:href="#P"/></g><g id="x"><use transform="matrix(0.06172839506172839,0,0,0.06172839506172839,0,0)" xlink:href="#Z"/><use transform="matrix(0.06172839506172839,0,0,0.06172839506172839,6.172839506172839,0)" xlink:href="#J"/><use transform="matrix(0.06172839506172839,0,0,0.06172839506172839,15.987654320987653,0)" xlink:href="#ac"/><use transform="matrix(0.06172839506172839,0,0,0.06172839506172839,27.098765432098766,0)" xlink:href="#J"/><use transform="matrix(0.06172839506172839,0,0,0.06172839506172839,36.91358024691358,0)" xlink:href="#Z"/></g><g id="y"><use transform="matrix(0.06172839506172839,0,0,0.06172839506172839,0,0)" xlink:href="#U"/><use transform="matrix(0.06172839506172839,0,0,0.06172839506172839,17.28395061728395,0)" xlink:href="#X"/><use transform="matrix(0.06172839506172839,0,0,0.06172839506172839,27.098765432098766,0)" xlink:href="#R"/><use transform="matrix(0.06172839506172839,0,0,0.06172839506172839,33.27160493827161,0)" xlink:href="#J"/><use transform="matrix(0.06172839506172839,0,0,0.06172839506172839,43.086419753086425,0)" xlink:href="#K"/><use transform="matrix(0.06172839506172839,0,0,0.06172839506172839,50.4320987654321,0)" xlink:href="#I"/><use transform="matrix(0.06172839506172839,0,0,0.06172839506172839,56.604938271604944,0)" xlink:href="#X"/><use transform="matrix(0.06172839506172839,0,0,0.06172839506172839,66.41975308641976,0)" xlink:href="#Z"/></g><g id="z"><use transform="matrix(0.06172839506172839,0,0,0.06172839506172839,0,0)" xlink:href="#Z"/><use transform="matrix(0.06172839506172839,0,0,0.06172839506172839,6.172839506172839,0)" xlink:href="#ab"/><use transform="matrix(0.06172839506172839,0,0,0.06172839506172839,17.28395061728395,0)" xlink:href="#K"/><use transform="matrix(0.06172839506172839,0,0,0.06172839506172839,24.629629629629626,0)" xlink:href="#I"/><use transform="matrix(0.06172839506172839,0,0,0.06172839506172839,30.802469135802465,0)" xlink:href="#V"/><use transform="matrix(0.06172839506172839,0,0,0.06172839506172839,40.61728395061728,0)" xlink:href="#D"/></g><g id="A"><use transform="matrix(0.06172839506172839,0,0,0.06172839506172839,0,0)" xlink:href="#R"/><use transform="matrix(0.06172839506172839,0,0,0.06172839506172839,6.172839506172839,0)" xlink:href="#J"/><use transform="matrix(0.06172839506172839,0,0,0.06172839506172839,15.987654320987653,0)" xlink:href="#Y"/><use transform="matrix(0.06172839506172839,0,0,0.06172839506172839,27.098765432098766,0)" xlink:href="#R"/></g><g id="B"><use transform="matrix(0.06172839506172839,0,0,0.06172839506172839,0,0)" xlink:href="#D"/><use transform="matrix(0.06172839506172839,0,0,0.06172839506172839,8.641975308641975,0)" xlink:href="#E"/><use transform="matrix(0.06172839506172839,0,0,0.06172839506172839,19.753086419753085,0)" xlink:href="#F"/><use transform="matrix(0.06172839506172839,0,0,0.06172839506172839,30.864197530864196,0)" xlink:href="#G"/><use transform="matrix(0.06172839506172839,0,0,0.06172839506172839,41.9753086419753,0)" xlink:href="#D"/><use transform="matrix(0.06172839506172839,0,0,0.06172839506172839,50.61728395061728,0)" xlink:href="#H"/><use transform="matrix(0.06172839506172839,0,0,0.06172839506172839,61.72839506172839,0)" xlink:href="#ac"/><use transform="matrix(0.06172839506172839,0,0,0.06172839506172839,72.8395061728395,0)" xlink:href="#E"/><use transform="matrix(0.06172839506172839,0,0,0.06172839506172839,83.95061728395062,0)" xlink:href="#V"/><use transform="matrix(0.06172839506172839,0,0,0.06172839506172839,93.76543209876543,0)" xlink:href="#X"/><use transform="matrix(0.06172839506172839,0,0,0.06172839506172839,103.58024691358024,0)" xlink:href="#aa"/><use transform="matrix(0.06172839506172839,0,0,0.06172839506172839,114.69135802469135,0)" xlink:href="#T"/><use transform="matrix(0.06172839506172839,0,0,0.06172839506172839,125.80246913580247,0)" xlink:href="#Z"/><use transform="matrix(0.06172839506172839,0,0,0.06172839506172839,131.97530864197532,0)" xlink:href="#X"/><use transform="matrix(0.06172839506172839,0,0,0.06172839506172839,141.79012345679013,0)" xlink:href="#K"/><use transform="matrix(0.06172839506172839,0,0,0.06172839506172839,149.1358024691358,0)" xlink:href="#I"/><use transform="matrix(0.06172839506172839,0,0,0.06172839506172839,155.30864197530863,0)" xlink:href="#J"/><use transform="matrix(0.06172839506172839,0,0,0.06172839506172839,165.12345679012344,0)" xlink:href="#D"/></g><g id="C"><use transform="matrix(0.06172839506172839,0,0,0.06172839506172839,0,0)" xlink:href="#ac"/><use transform="matrix(0.06172839506172839,0,0,0.06172839506172839,11.11111111111111,0)" xlink:href="#E"/><use transform="matrix(0.06172839506172839,0,0,0.06172839506172839,22.22222222222222,0)" xlink:href="#V"/><use transform="matrix(0.06172839506172839,0,0,0.06172839506172839,32.03703703703704,0)" xlink:href="#X"/><use transform="matrix(0.06172839506172839,0,0,0.06172839506172839,41.851851851851855,0)" xlink:href="#aa"/><use transform="matrix(0.06172839506172839,0,0,0.06172839506172839,52.96296296296296,0)" xlink:href="#T"/><use transform="matrix(0.06172839506172839,0,0,0.06172839506172839,64.07407407407408,0)" xlink:href="#Z"/><use transform="matrix(0.06172839506172839,0,0,0.06172839506172839,70.24691358024691,0)" xlink:href="#X"/><use transform="matrix(0.06172839506172839,0,0,0.06172839506172839,80.06172839506172,0)" xlink:href="#K"/><use transform="matrix(0.06172839506172839,0,0,0.06172839506172839,87.4074074074074,0)" xlink:href="#ab"/><use transform="matrix(0.06172839506172839,0,0,0.06172839506172839,98.51851851851852,0)" xlink:href="#H"/><use transform="matrix(0.06172839506172839,0,0,0.06172839506172839,109.62962962962963,0)" xlink:href="#I"/><use transform="matrix(0.06172839506172839,0,0,0.06172839506172839,115.80246913580247,0)" xlink:href="#P"/></g></defs></g></svg>